<svg xmlns="http://www.w3.org/2000/svg" xmlns:xlink="http://www.w3.org/1999/xlink" version="1.1" width="1000" height="1000" viewBox="0 0 1000 1000" xml:space="preserve">
<desc>Created with Fabric.js 3.5.0</desc>
<defs>
</defs>
<rect x="0" y="0" width="100%" height="100%" fill="rgba(255,255,255,0)"/>
<g transform="matrix(2.1691 0 0 2.1691 511.6242 511.3065)" id="856718">
<path style="stroke: none; stroke-width: 1; stroke-dasharray: none; stroke-linecap: butt; stroke-dashoffset: 0; stroke-linejoin: miter; stroke-miterlimit: 4; is-custom-font: none; font-file-url: none; fill: rgb(252,202,49); fill-rule: nonzero; opacity: 1;" vector-effect="non-scaling-stroke" transform=" translate(-229.5928, -249.2391)" d="M 420.5 274 Q 392 308 373 337.5 Q 354 367 334 417.5 Q 314 468 269.5 425.5 Q 225 383 180.5 401.5 Q 136 420 112.5 385 Q 89 350 82 312.5 Q 75 275 40.5 232.5 Q 6 190 59 168.5 Q 112 147 124.5 104 Q 137 61 178 50 Q 219 39 258 52.5 Q 297 66 317.5 98.5 Q 338 131 370.5 149.5 Q 403 168 426 204 Q 449 240 420.5 274 Z" stroke-linecap="round"/>
</g>
</svg>